<svg width="16" height="16" viewBox="0 0 16 16" fill="none" xmlns="http://www.w3.org/2000/svg">
<path d="M4.83342 8.43998L10.1667 14.44C10.2835 14.5724 10.4481 14.6532 10.6243 14.6644C10.8006 14.6757 10.9741 14.6165 11.1067 14.5C11.2392 14.3832 11.3199 14.2186 11.3312 14.0424C11.3424 13.8662 11.2833 13.6927 11.1667 13.56L6.22675 7.99999L11.1667 2.43999C11.2745 2.3062 11.3265 2.13599 11.3118 1.96484C11.2971 1.79369 11.2169 1.63481 11.088 1.52132C10.959 1.40784 10.7912 1.34852 10.6196 1.35572C10.448 1.36292 10.2857 1.4361 10.1667 1.55998L4.83342 7.55999C4.72654 7.68164 4.6676 7.83805 4.6676 7.99999C4.6676 8.16192 4.72654 8.31833 4.83342 8.43998Z" fill="#6C5DD3"/>
</svg>
