<svg width="16" height="16" viewBox="0 0 16 16" fill="none" xmlns="http://www.w3.org/2000/svg">
<path d="M11.1666 8.43998L5.83325 14.44C5.71647 14.5724 5.5519 14.6532 5.37566 14.6644C5.19943 14.6757 5.02593 14.6165 4.89325 14.5C4.7608 14.3832 4.68008 14.2186 4.66884 14.0424C4.65759 13.8662 4.71672 13.6927 4.83325 13.56L9.77325 7.99999L4.83325 2.43999C4.7255 2.3062 4.67355 2.13599 4.68822 1.96484C4.7029 1.79369 4.78308 1.63481 4.91203 1.52132C5.04099 1.40784 5.20877 1.34852 5.3804 1.35572C5.55203 1.36292 5.71426 1.4361 5.83325 1.55998L11.1666 7.55999C11.2735 7.68164 11.3324 7.83805 11.3324 7.99999C11.3324 8.16192 11.2735 8.31833 11.1666 8.43998Z" fill="#6C5DD3"/>
</svg>
