<svg width="24" height="24" viewBox="0 0 24 24" fill="none" xmlns="http://www.w3.org/2000/svg">
<path d="M16.7501 12.66L8.75012 21.66C8.57494 21.8587 8.32809 21.9797 8.06374 21.9966C7.79939 22.0135 7.53915 21.9248 7.34013 21.75C7.14144 21.5748 7.02037 21.328 7.0035 21.0636C6.98662 20.7993 7.07532 20.539 7.25013 20.34L14.6601 12L7.25013 3.65999C7.0885 3.45932 7.01056 3.204 7.03258 2.94728C7.05459 2.69055 7.17486 2.45223 7.36829 2.282C7.56173 2.11178 7.81341 2.02279 8.07085 2.0336C8.32829 2.0444 8.57163 2.15416 8.75012 2.33999L16.7501 11.34C16.9104 11.5225 16.9988 11.7571 16.9988 12C16.9988 12.2429 16.9104 12.4775 16.7501 12.66Z" fill="#11142D"/>
</svg>
