<svg width="16" height="16" viewBox="0 0 16 16" fill="none" xmlns="http://www.w3.org/2000/svg">
<path d="M7.57042 11.1773L1.57042 5.84399C1.43796 5.72721 1.35725 5.56264 1.346 5.3864C1.33475 5.21017 1.39389 5.03668 1.51042 4.904C1.62721 4.77154 1.79178 4.69083 1.96801 4.67958C2.14425 4.66833 2.31774 4.72746 2.45042 4.844L8.01042 9.78399L13.5704 4.844C13.7042 4.73624 13.8744 4.68429 14.0456 4.69896C14.2167 4.71364 14.3756 4.79382 14.4891 4.92278C14.6026 5.05173 14.6619 5.21952 14.6547 5.39115C14.6475 5.56277 14.5743 5.725 14.4504 5.84399L8.45042 11.1773C8.32876 11.2842 8.17236 11.3431 8.01042 11.3431C7.84848 11.3431 7.69208 11.2842 7.57042 11.1773Z" fill="#6C5DD3"/>
</svg>
