<svg width="24" height="24" viewBox="0 0 24 24" fill="none" xmlns="http://www.w3.org/2000/svg">
<path d="M2.99994 11.0002H9.99994C10.2652 11.0002 10.5195 10.8949 10.707 10.7074C10.8946 10.5198 10.9999 10.2655 10.9999 10.0002V3.00024C10.9999 2.73503 10.8946 2.48067 10.707 2.29314C10.5195 2.1056 10.2652 2.00024 9.99994 2.00024H2.99994C2.73472 2.00024 2.48037 2.1056 2.29283 2.29314C2.1053 2.48067 1.99994 2.73503 1.99994 3.00024V10.0002C1.99994 10.2655 2.1053 10.5198 2.29283 10.7074C2.48037 10.8949 2.73472 11.0002 2.99994 11.0002ZM3.99994 4.00024H8.99994V9.00024H3.99994V4.00024Z" fill="#AAAAAA"/>
<path d="M14.0001 11.0002H21.0001C21.2653 11.0002 21.5197 10.8949 21.7072 10.7074C21.8947 10.5198 22.0001 10.2655 22.0001 10.0002V3.00024C22.0001 2.73503 21.8947 2.48067 21.7072 2.29314C21.5197 2.1056 21.2653 2.00024 21.0001 2.00024H14.0001C13.7349 2.00024 13.4805 2.1056 13.293 2.29314C13.1054 2.48067 13.0001 2.73503 13.0001 3.00024V10.0002C13.0001 10.2655 13.1054 10.5198 13.293 10.7074C13.4805 10.8949 13.7349 11.0002 14.0001 11.0002ZM15.0001 4.00024H20.0001V9.00024H15.0001V4.00024Z" fill="#AAAAAA"/>
<path d="M2.99994 21.9998H9.99994C10.2652 21.9998 10.5195 21.8944 10.707 21.7069C10.8946 21.5193 10.9999 21.265 10.9999 20.9998V13.9998C10.9999 13.7345 10.8946 13.4802 10.707 13.2926C10.5195 13.1051 10.2652 12.9998 9.99994 12.9998H2.99994C2.73472 12.9998 2.48037 13.1051 2.29283 13.2926C2.1053 13.4802 1.99994 13.7345 1.99994 13.9998V20.9998C1.99994 21.265 2.1053 21.5193 2.29283 21.7069C2.48037 21.8944 2.73472 21.9998 2.99994 21.9998ZM3.99994 14.9998H8.99994V19.9998H3.99994V14.9998Z" fill="#AAAAAA"/>
<path d="M14.0001 21.9998H21.0001C21.2653 21.9998 21.5197 21.8944 21.7072 21.7069C21.8947 21.5193 22.0001 21.265 22.0001 20.9998V13.9998C22.0001 13.7345 21.8947 13.4802 21.7072 13.2926C21.5197 13.1051 21.2653 12.9998 21.0001 12.9998H14.0001C13.7349 12.9998 13.4805 13.1051 13.293 13.2926C13.1054 13.4802 13.0001 13.7345 13.0001 13.9998V20.9998C13.0001 21.265 13.1054 21.5193 13.293 21.7069C13.4805 21.8944 13.7349 21.9998 14.0001 21.9998ZM15.0001 14.9998H20.0001V19.9998H15.0001V14.9998Z" fill="#AAAAAA"/>
</svg>
