<svg width="24" height="24" viewBox="0 0 24 24" fill="none" xmlns="http://www.w3.org/2000/svg">
<path fill-rule="evenodd" clip-rule="evenodd" d="M11.9995 20C16.4178 20 19.9995 16.4183 19.9995 12C19.9995 7.58172 16.4178 4 11.9995 4C7.58123 4 3.99951 7.58172 3.99951 12C3.99951 16.4183 7.58123 20 11.9995 20ZM11.9995 22C17.5223 22 21.9995 17.5228 21.9995 12C21.9995 6.47715 17.5223 2 11.9995 2C6.47666 2 1.99951 6.47715 1.99951 12C1.99951 17.5228 6.47666 22 11.9995 22Z" fill="#6C5DD3"/>
<path fill-rule="evenodd" clip-rule="evenodd" d="M11.9995 7C11.4472 7 10.9995 7.44772 10.9995 8C10.9995 8.55229 11.4472 9 11.9995 9C12.5518 9 12.9995 8.55229 12.9995 8C12.9995 7.44772 12.5518 7 11.9995 7ZM11.9995 11C11.4472 11 10.9995 11.4477 10.9995 12V16C10.9995 16.5523 11.4472 17 11.9995 17C12.5518 17 12.9995 16.5523 12.9995 16V12C12.9995 11.4477 12.5518 11 11.9995 11Z" fill="#6C5DD3"/>
</svg>
