<svg width="22" height="18" viewBox="0 0 22 18" fill="none" xmlns="http://www.w3.org/2000/svg">
<path fill-rule="evenodd" clip-rule="evenodd" d="M19 2H3C2.44772 2 2 2.44772 2 3V15C2 15.5523 2.44772 16 3 16H19C19.5523 16 20 15.5523 20 15V3C20 2.44772 19.5523 2 19 2ZM3 0C1.34315 0 0 1.34315 0 3V15C0 16.6569 1.34315 18 3 18H19C20.6569 18 22 16.6569 22 15V3C22 1.34315 20.6569 0 19 0H3Z" fill="#6C5DD3"/>
<path fill-rule="evenodd" clip-rule="evenodd" d="M4.2318 4.35984C4.58537 3.93556 5.21593 3.87824 5.64021 4.2318L10.3598 8.16482C10.7307 8.47382 11.2693 8.47382 11.6402 8.16482L16.3598 4.2318C16.7841 3.87824 17.4147 3.93556 17.7682 4.35984C18.1218 4.78412 18.0645 5.41468 17.6402 5.76825L12.9205 9.70122C11.808 10.6284 10.192 10.6284 9.07943 9.70122L4.35984 5.76825C3.93556 5.41468 3.87824 4.78412 4.2318 4.35984Z" fill="#6C5DD3"/>
</svg>
