<svg width="24" height="24" viewBox="0 0 24 24" fill="none" xmlns="http://www.w3.org/2000/svg">
<path d="M22.3837 12.8243L20.517 19.368C20.2418 20.3287 19.353 21 18.3547 21H8.25C7.83525 21 7.5 20.664 7.5 20.25V9.75C7.5 9.58875 7.55175 9.43125 7.6485 9.30225L11.6925 3.87225C12.141 3.3105 12.7875 3 13.4805 3C14.7323 3 15.75 4.01775 15.75 5.2695V9H19.5015C20.4503 9 21.3218 9.43425 21.8925 10.1917C22.4655 10.9507 22.644 11.91 22.3837 12.8243Z" fill="#6C5DD3"/>
<path d="M5.25 9H2.25C1.83525 9 1.5 9.336 1.5 9.75V20.25C1.5 20.664 1.83525 21 2.25 21H5.25C5.66475 21 6 20.664 6 20.25V9.75C6 9.336 5.66475 9 5.25 9ZM3.75 19.125C3.129 19.125 2.625 18.621 2.625 18C2.625 17.379 3.129 16.875 3.75 16.875C4.371 16.875 4.875 17.379 4.875 18C4.875 18.621 4.371 19.125 3.75 19.125Z" fill="#6C5DD3"/>
</svg>
