<svg width="86" height="83" viewBox="0 0 86 83" fill="none" xmlns="http://www.w3.org/2000/svg">
<g clip-path="url(#clip0_2_609)">
<path d="M59.5698 83.0001C59.2198 83.0001 58.4498 83.0001 58.0998 82.6501H57.7499L34.9998 73.1301L12.3198 82.6501C10.8498 83.3501 9.02984 83.0001 7.90984 82.3001C6.78984 81.6001 6.08984 80.1301 6.08984 78.6601V27.3501C6.08984 19.3001 12.3198 13.0701 20.3698 13.0701H49.6998C57.7498 13.0701 63.9799 19.3001 63.9799 27.3501V78.6601C63.9799 80.1301 63.2799 81.6001 62.1599 82.3001C61.3899 82.6501 60.2698 83.0001 59.5698 83.0001ZM20.3698 20.0001C16.7298 20.0001 13.4398 23.2901 13.4398 26.9301V74.1801L34.9998 65.0801L56.6299 74.2501V26.9301C56.6299 23.2901 53.3398 20.0001 49.6998 20.0001H20.3698Z" fill="#6C5DD3"/>
</g>
<circle cx="64" cy="22" r="22" fill="#FF754C"/>
<path d="M73.3899 21.6C73.6646 21.3192 73.8559 20.9676 73.9424 20.5845C74.029 20.2013 74.0073 19.8016 73.8799 19.43C73.7604 19.0573 73.5386 18.7257 73.2398 18.4729C72.941 18.2201 72.5773 18.0562 72.1899 18L67.8999 17.34C67.8799 17.3342 67.8615 17.324 67.8459 17.3102C67.8303 17.2963 67.818 17.2792 67.8099 17.26L65.9299 13.26C65.7651 12.8855 65.4949 12.5669 65.1522 12.3432C64.8095 12.1195 64.4092 12.0003 63.9999 12C63.5954 11.9983 63.1991 12.1135 62.8585 12.3317C62.5179 12.5499 62.2475 12.8619 62.0799 13.23L60.1999 17.23C60.1897 17.2495 60.1755 17.2667 60.1583 17.2805C60.1411 17.2942 60.1212 17.3043 60.0999 17.31L55.8199 18C55.432 18.0578 55.0678 18.2221 54.7676 18.4745C54.4675 18.727 54.2433 19.0577 54.1199 19.43C53.9972 19.8029 53.979 20.2023 54.0671 20.5848C54.1552 20.9673 54.3464 21.3184 54.6199 21.6L57.7799 24.85C57.789 24.8705 57.7937 24.8926 57.7937 24.915C57.7937 24.9374 57.789 24.9596 57.7799 24.98L57.0399 29.52C56.9711 29.9154 57.016 30.3222 57.1693 30.6931C57.3225 31.064 57.5779 31.3838 57.9058 31.6152C58.2336 31.8467 58.6204 31.9804 59.0212 32.0007C59.422 32.021 59.8204 31.9272 60.1699 31.73L63.8999 29.66C63.9185 29.6504 63.939 29.6453 63.9599 29.6453C63.9808 29.6453 64.0014 29.6504 64.0199 29.66L67.7499 31.73C68.1 31.9229 68.4972 32.0134 68.8963 31.9913C69.2953 31.9691 69.6801 31.835 70.0065 31.6045C70.333 31.374 70.5881 31.0563 70.7425 30.6877C70.897 30.319 70.9446 29.9144 70.8799 29.52L70.1899 25C70.1794 24.9818 70.1739 24.9611 70.1739 24.94C70.1739 24.919 70.1794 24.8983 70.1899 24.88L73.3899 21.6Z" fill="white"/>
<defs>
<clipPath id="clip0_2_609">
<rect width="70" height="70" fill="white" transform="translate(0 13)"/>
</clipPath>
</defs>
</svg>
