<svg width="68" height="68" viewBox="0 0 68 68" fill="none" xmlns="http://www.w3.org/2000/svg">
<path d="M57.375 10.625H10.625C8.93425 10.625 7.31274 11.2967 6.11719 12.4922C4.92165 13.6877 4.25 15.3092 4.25 17V51C4.25 52.6908 4.92165 54.3123 6.11719 55.5078C7.31274 56.7034 8.93425 57.375 10.625 57.375H57.375C59.0658 57.375 60.6873 56.7034 61.8828 55.5078C63.0784 54.3123 63.75 52.6908 63.75 51V17C63.75 15.3092 63.0784 13.6877 61.8828 12.4922C60.6873 11.2967 59.0658 10.625 57.375 10.625ZM8.5 23.375H59.5V29.75H8.5V23.375ZM10.625 14.875H57.375C57.9386 14.875 58.4791 15.0989 58.8776 15.4974C59.2761 15.8959 59.5 16.4364 59.5 17V19.125H8.5V17C8.5 16.4364 8.72388 15.8959 9.1224 15.4974C9.52091 15.0989 10.0614 14.875 10.625 14.875ZM57.375 53.125H10.625C10.0614 53.125 9.52091 52.9011 9.1224 52.5026C8.72388 52.1041 8.5 51.5636 8.5 51V34H59.5V51C59.5 51.5636 59.2761 52.1041 58.8776 52.5026C58.4791 52.9011 57.9386 53.125 57.375 53.125ZM21.25 46.75C21.25 47.3136 21.0261 47.8541 20.6276 48.2526C20.2291 48.6511 19.6886 48.875 19.125 48.875H14.875C14.3114 48.875 13.7709 48.6511 13.3724 48.2526C12.9739 47.8541 12.75 47.3136 12.75 46.75C12.75 46.1864 12.9739 45.6459 13.3724 45.2474C13.7709 44.8489 14.3114 44.625 14.875 44.625H19.125C19.6886 44.625 20.2291 44.8489 20.6276 45.2474C21.0261 45.6459 21.25 46.1864 21.25 46.75ZM31.875 46.75C31.875 47.3136 31.6511 47.8541 31.2526 48.2526C30.8541 48.6511 30.3136 48.875 29.75 48.875H25.5C24.9364 48.875 24.3959 48.6511 23.9974 48.2526C23.5989 47.8541 23.375 47.3136 23.375 46.75C23.375 46.1864 23.5989 45.6459 23.9974 45.2474C24.3959 44.8489 24.9364 44.625 25.5 44.625H29.75C30.3136 44.625 30.8541 44.8489 31.2526 45.2474C31.6511 45.6459 31.875 46.1864 31.875 46.75Z" fill="#6C5DD3"/>
</svg>
