<svg width="68" height="68" viewBox="0 0 68 68" fill="none" xmlns="http://www.w3.org/2000/svg">
<path d="M60.365 20.9097C58.2598 18.2897 54.9048 16.5548 51.1381 16.0734C49.9442 8.79583 43.5615 5 37.4259 5H15.3106L5 52.125H18.7246L16.2719 63H33.8443L37.3566 48.5H42.9223C47.7023 48.5 52.0544 47.0838 55.5078 44.4043C59.0882 41.6264 61.5276 37.6107 62.5626 32.7906C63.8418 26.8235 62.0736 23.0362 60.365 20.9097ZM10.6306 47.5938L18.9584 9.53125H37.4259C41.2078 9.53125 45.3373 11.5675 46.4906 15.9883H26.8748L19.7466 47.5938H10.6306ZM46.6423 20.5195C46.5857 20.9822 46.5133 21.4225 46.4249 21.8381C44.8158 29.3358 39.8963 32.9805 31.3854 32.9805H27.6882L30.4986 20.5195H46.6423ZM58.1312 31.8402C56.5248 39.3214 50.6969 43.9688 42.9222 43.9688H33.7911L30.2788 58.4688H21.9396L26.6662 37.5117H31.3854C36.5119 37.5117 40.7685 36.3152 44.0372 33.9555C47.5096 31.4486 49.8038 27.6916 50.8567 22.7854C50.9991 22.1169 51.1077 21.4067 51.1849 20.6628C53.536 21.0832 55.5654 22.1714 56.8319 23.7476C58.4213 25.7257 58.8584 28.4487 58.1312 31.8402Z" fill="#11142D"/>
</svg>
