<svg width="22" height="22" viewBox="0 0 22 22" fill="none" xmlns="http://www.w3.org/2000/svg">
<path d="M16.9998 0H4.99982C3.67422 0.00158786 2.40337 0.528882 1.46604 1.46622C0.528699 2.40356 0.00140475 3.67441 -0.000183105 5V13C0.00127142 14.1522 0.399907 15.2687 1.12854 16.1613C1.85716 17.0538 2.87123 17.6679 3.99982 17.9V21C3.99979 21.1811 4.04891 21.3587 4.14194 21.514C4.23497 21.6693 4.36842 21.7965 4.52805 21.8819C4.68768 21.9673 4.8675 22.0078 5.04833 21.999C5.22916 21.9902 5.40422 21.9325 5.55482 21.832L11.2998 18H16.9998C18.3254 17.9984 19.5963 17.4711 20.5336 16.5338C21.4709 15.5965 21.9982 14.3256 21.9998 13V5C21.9982 3.67441 21.4709 2.40356 20.5336 1.46622C19.5963 0.528882 18.3254 0.00158786 16.9998 0ZM14.9998 12H6.99982C6.7346 12 6.48025 11.8947 6.29271 11.7071C6.10517 11.5196 5.99982 11.2652 5.99982 11C5.99982 10.7348 6.10517 10.4804 6.29271 10.2929C6.48025 10.1054 6.7346 10 6.99982 10H14.9998C15.265 10 15.5194 10.1054 15.7069 10.2929C15.8945 10.4804 15.9998 10.7348 15.9998 11C15.9998 11.2652 15.8945 11.5196 15.7069 11.7071C15.5194 11.8947 15.265 12 14.9998 12ZM16.9998 8H4.99982C4.7346 8 4.48025 7.89465 4.29271 7.70711C4.10517 7.51957 3.99982 7.26522 3.99982 7C3.99982 6.73479 4.10517 6.48043 4.29271 6.2929C4.48025 6.10536 4.7346 6 4.99982 6H16.9998C17.265 6 17.5194 6.10536 17.7069 6.2929C17.8945 6.48043 17.9998 6.73479 17.9998 7C17.9998 7.26522 17.8945 7.51957 17.7069 7.70711C17.5194 7.89465 17.265 8 16.9998 8Z" fill="#6C5DD3"/>
</svg>
