<svg width="20" height="24" viewBox="0 0 20 24" fill="none" xmlns="http://www.w3.org/2000/svg">
<path d="M19.296 8.6858C19.1796 8.44064 18.9323 8.28427 18.6608 8.28427H11.6087L15.8772 1.06083C16.0056 0.843469 16.0076 0.573844 15.8825 0.354609C15.7573 0.135375 15.5242 -9.37014e-05 15.2717 4.86277e-08L9.24669 0.000656299C8.99666 0.000750049 8.76543 0.1335 8.63948 0.349453L0.731669 13.905C0.604778 14.1224 0.603888 14.3911 0.729278 14.6094C0.854669 14.8277 1.08722 14.9624 1.33898 14.9624H8.34623L6.30529 23.1263C6.22541 23.4457 6.37799 23.7779 6.67237 23.9255C6.77277 23.9757 6.88045 24 6.98709 24C7.19315 24 7.39509 23.9094 7.53224 23.7413L19.2057 9.43186C19.3773 9.22148 19.4125 8.93105 19.296 8.6858Z" fill="#6C5DD3"/>
</svg>
