<svg width="24" height="24" viewBox="0 0 24 24" fill="none" xmlns="http://www.w3.org/2000/svg">
<path d="M10.2931 16.2932L8.0001 18.5861V3.00024C8.0001 2.73503 7.89474 2.48067 7.70721 2.29314C7.51967 2.1056 7.26532 2.00024 7.0001 2.00024C6.73489 2.00024 6.48053 2.1056 6.293 2.29314C6.10546 2.48067 6.0001 2.73503 6.0001 3.00024V18.5861L3.7071 16.2932C3.5185 16.1111 3.2659 16.0103 3.0037 16.0126C2.7415 16.0148 2.49069 16.12 2.30528 16.3054C2.11988 16.4908 2.01471 16.7416 2.01243 17.0038C2.01015 17.266 2.11094 17.5186 2.2931 17.7072L6.2931 21.7072C6.4808 21.8944 6.73507 21.9995 7.00015 21.9995C7.26524 21.9995 7.5195 21.8944 7.7072 21.7072L11.7072 17.7072C11.89 17.5188 11.9914 17.2659 11.9894 17.0034C11.9874 16.7408 11.8822 16.4895 11.6965 16.3039C11.5108 16.1182 11.2595 16.013 10.997 16.011C10.7344 16.009 10.4816 16.1104 10.2931 16.2932Z" fill="#AAAAAA"/>
<path d="M11.0001 6.00048H21.0001C21.2653 6.00048 21.5197 5.89513 21.7072 5.70759C21.8947 5.52006 22.0001 5.2657 22.0001 5.00049C22.0001 4.73527 21.8947 4.48092 21.7072 4.29338C21.5197 4.10585 21.2653 4.00049 21.0001 4.00049H11.0001C10.7349 4.00049 10.4805 4.10585 10.293 4.29338C10.1054 4.48092 10.0001 4.73527 10.0001 5.00049C10.0001 5.2657 10.1054 5.52006 10.293 5.70759C10.4805 5.89513 10.7349 6.00048 11.0001 6.00048Z" fill="#AAAAAA"/>
<path d="M21.0001 8.00024H11.0001C10.7349 8.00024 10.4805 8.1056 10.293 8.29314C10.1054 8.48067 10.0001 8.73503 10.0001 9.00024C10.0001 9.26546 10.1054 9.51981 10.293 9.70735C10.4805 9.89488 10.7349 10.0002 11.0001 10.0002H21.0001C21.2653 10.0002 21.5197 9.89488 21.7072 9.70735C21.8947 9.51981 22.0001 9.26546 22.0001 9.00024C22.0001 8.73503 21.8947 8.48067 21.7072 8.29314C21.5197 8.1056 21.2653 8.00024 21.0001 8.00024Z" fill="#AAAAAA"/>
<path d="M18.0001 12H11.0001C10.7349 12 10.4805 12.1054 10.293 12.2929C10.1054 12.4804 10.0001 12.7348 10.0001 13C10.0001 13.2652 10.1054 13.5196 10.293 13.7071C10.4805 13.8947 10.7349 14 11.0001 14H18.0001C18.2653 14 18.5197 13.8947 18.7072 13.7071C18.8947 13.5196 19.0001 13.2652 19.0001 13C19.0001 12.7348 18.8947 12.4804 18.7072 12.2929C18.5197 12.1054 18.2653 12 18.0001 12Z" fill="#AAAAAA"/>
</svg>
