<svg width="20" height="21" viewBox="0 0 20 21" fill="none" xmlns="http://www.w3.org/2000/svg">
<path d="M19.3899 9.59993C19.6646 9.31913 19.8559 8.96753 19.9424 8.58436C20.029 8.20119 20.0073 7.80152 19.8799 7.42993C19.7604 7.05724 19.5386 6.7256 19.2398 6.47279C18.941 6.21997 18.5773 6.05613 18.1899 5.99993L13.8999 5.33993C13.8799 5.33413 13.8615 5.32394 13.8459 5.3101C13.8303 5.29626 13.818 5.27912 13.8099 5.25993L11.9299 1.25993C11.7651 0.885366 11.4949 0.566829 11.1522 0.343114C10.8095 0.1194 10.4092 0.00016252 9.99994 -7.35929e-05C9.59544 -0.00174619 9.19906 0.113441 8.85846 0.331641C8.51785 0.549841 8.24751 0.861767 8.07994 1.22993L6.19994 5.22993C6.18968 5.24943 6.1755 5.2666 6.15829 5.28037C6.14108 5.29413 6.12122 5.3042 6.09994 5.30993L1.81994 5.99993C1.43203 6.05772 1.06776 6.22197 0.767637 6.47443C0.467513 6.72689 0.243301 7.05765 0.119936 7.42993C-0.00276581 7.80281 -0.0210372 8.20217 0.0671036 8.5847C0.155244 8.96723 0.346433 9.31833 0.619936 9.59993L3.77994 12.8499C3.78903 12.8704 3.79373 12.8925 3.79373 12.9149C3.79373 12.9373 3.78903 12.9595 3.77994 12.9799L3.03994 17.5199C2.97114 17.9153 3.01599 18.3221 3.16926 18.693C3.32253 19.0639 3.57794 19.3837 3.90577 19.6151C4.23361 19.8466 4.62042 19.9803 5.02122 20.0006C5.42203 20.0209 5.82037 19.9271 6.16994 19.7299L9.89994 17.6599C9.91847 17.6503 9.93905 17.6453 9.95994 17.6453C9.98082 17.6453 10.0014 17.6503 10.0199 17.6599L13.7499 19.7299C14.1 19.9228 14.4972 20.0134 14.8963 19.9912C15.2953 19.969 15.6801 19.835 16.0065 19.6044C16.333 19.3739 16.5881 19.0562 16.7425 18.6876C16.897 18.319 16.9446 17.9143 16.8799 17.5199L16.1899 12.9999C16.1794 12.9817 16.1739 12.961 16.1739 12.9399C16.1739 12.9189 16.1794 12.8982 16.1899 12.8799L19.3899 9.59993Z" fill="#FF754C"/>
</svg>
